<svg xmlns="http://www.w3.org/2000/svg" width="1280" height="720" viewBox="0 0 1280 720" fill="none">
  <defs>
    <linearGradient id="bg" x1="0" y1="0" x2="1280" y2="720" gradientUnits="userSpaceOnUse">
      <stop stop-color="#0B1730"/>
      <stop offset="1" stop-color="#102B52"/>
    </linearGradient>
    <linearGradient id="card" x1="0" y1="0" x2="1" y2="1">
      <stop stop-color="#142E57"/>
      <stop offset="1" stop-color="#0F2446"/>
    </linearGradient>
  </defs>

  <rect width="1280" height="720" fill="url(#bg)"/>
  <rect x="28" y="24" width="1224" height="72" rx="16" fill="#0E1F3C" stroke="#2A4B78"/>
  <text x="48" y="68" fill="#EAF2FF" font-size="40" font-family="Segoe UI, Arial, sans-serif" font-weight="700">Comic Downloader WebUI</text>

  <rect x="28" y="118" width="1224" height="220" rx="16" fill="url(#card)" stroke="#2A4B78"/>
  <text x="52" y="165" fill="#EAF2FF" font-size="34" font-family="Segoe UI, Arial, sans-serif" font-weight="700">Dashboard</text>
  <text x="52" y="208" fill="#AFC8F2" font-size="22" font-family="Segoe UI, Arial, sans-serif">Search by keyword or paste a series URL</text>

  <rect x="52" y="238" width="560" height="62" rx="12" fill="#0B1A33" stroke="#355A8E"/>
  <text x="74" y="278" fill="#89A9D9" font-size="20" font-family="Consolas, monospace">wireless onahole</text>
  <rect x="632" y="238" width="170" height="62" rx="12" fill="#1570EF"/>
  <text x="680" y="278" fill="#FFFFFF" font-size="22" font-family="Segoe UI, Arial, sans-serif" font-weight="700">Search</text>

  <rect x="28" y="360" width="598" height="332" rx="16" fill="url(#card)" stroke="#2A4B78"/>
  <text x="52" y="406" fill="#EAF2FF" font-size="30" font-family="Segoe UI, Arial, sans-serif" font-weight="700">Bookshelf</text>
  <rect x="52" y="426" width="170" height="240" rx="12" fill="#112747" stroke="#345783"/>
  <rect x="242" y="426" width="170" height="240" rx="12" fill="#112747" stroke="#345783"/>
  <rect x="432" y="426" width="170" height="240" rx="12" fill="#112747" stroke="#345783"/>

  <rect x="654" y="360" width="598" height="332" rx="16" fill="url(#card)" stroke="#2A4B78"/>
  <text x="678" y="406" fill="#EAF2FF" font-size="30" font-family="Segoe UI, Arial, sans-serif" font-weight="700">Progress</text>
  <rect x="678" y="434" width="550" height="22" rx="11" fill="#0B1A33" stroke="#355A8E"/>
  <rect x="679" y="435" width="412" height="20" rx="10" fill="#20B486"/>
  <text x="678" y="492" fill="#B7CFF6" font-size="20" font-family="Segoe UI, Arial, sans-serif">Real-time logs, pause/resume/cancel controls</text>
</svg>
